<svg width="256" height="256" viewBox="0 0 256 256" fill="none" xmlns="http://www.w3.org/2000/svg">
  <!-- Background -->
  <rect width="256" height="256" rx="48" fill="#1E3A8A"/>
  
  <!-- "L" shape representing Logistics -->
  <path d="M45 64V160H105V130H75V64H45Z" fill="white"/>
  
  <!-- "C" shape representing CRM -->
  <path d="M131 64C121.059 64 112 68.1152 104.824 76.3457C97.6475 84.5762 94.0588 94.5176 94.0588 106.169C94.0588 117.821 97.6475 127.763 104.824 135.993C112 144.224 121.059 148.339 131 148.339C140.941 148.339 149.118 144.224 155.294 135.993C161.471 127.763 164.559 117.821 164.559 106.169C164.559 94.5176 161.471 84.5762 155.294 76.3457C149.118 68.1152 140.941 64 131 64ZM131 130C125.765 130 121.412 128.034 117.941 124.102C114.471 120.169 112.735 114.135 112.735 106C112.735 97.8649 114.471 91.8311 117.941 87.8982C121.412 83.9661 125.765 82 131 82C136.235 82 140.588 83.9661 144.059 87.8982C147.529 91.8311 149.265 97.8649 149.265 106C149.265 114.135 147.529 120.169 144.059 124.102C140.588 128.034 136.235 130 131 130Z" fill="white"/>
  
  <!-- Automation Icon (Gear) -->
  <path d="M205 90C199.477 90 195 94.4772 195 100C195 105.523 199.477 110 205 110C210.523 110 215 105.523 215 100C215 94.4772 210.523 90 205 90ZM186 100C186 89.5066 194.507 81 205 81C215.493 81 224 89.5066 224 100C224 110.493 215.493 119 205 119C194.507 119 186 110.493 186 100Z" fill="#14B8A6"/>
  
  <!-- Dashboard/Chart Icon -->
  <rect x="45" y="174" width="165" height="18" rx="9" fill="#F59E0B"/>
  <rect x="45" y="174" width="25" height="18" rx="9" fill="#14B8A6"/>
  <rect x="85" y="174" width="35" height="18" rx="9" fill="#14B8A6"/>
  <rect x="135" y="174" width="15" height="18" rx="7.5" fill="#14B8A6"/>
  <rect x="165" y="174" width="45" height="18" rx="9" fill="#14B8A6"/>
</svg>
